<svg width="25" height="24" viewBox="0 0 25 24" fill="none" xmlns="http://www.w3.org/2000/svg">
<path d="M12.3416 7.5L9.54124 9.6C9.41142 9.69737 9.25352 9.75 9.09124 9.75H3.34155V6C3.34155 5.80109 3.42057 5.61032 3.56122 5.46967C3.70188 5.32902 3.89264 5.25 4.09155 5.25H9.09124C9.25352 5.25 9.41142 5.30263 9.54124 5.4L12.3416 7.5Z" fill="black" fill-opacity="0.04"/>
<path d="M20.5916 6.75H12.5919L9.99124 4.8C9.73122 4.60599 9.41566 4.5008 9.09124 4.5H4.09155C3.69373 4.5 3.3122 4.65804 3.03089 4.93934C2.74959 5.22064 2.59155 5.60218 2.59155 6V18.75C2.59155 19.1478 2.74959 19.5294 3.03089 19.8107C3.3122 20.092 3.69373 20.25 4.09155 20.25H20.5916C20.9894 20.25 21.3709 20.092 21.6522 19.8107C21.9335 19.5294 22.0916 19.1478 22.0916 18.75V8.25C22.0916 7.85218 21.9335 7.47064 21.6522 7.18934C21.3709 6.90804 20.9894 6.75 20.5916 6.75ZM4.09155 6H9.09124L11.0919 7.5L9.09124 9H4.09155V6ZM20.5916 18.75H4.09155V10.5H9.09124C9.41566 10.4992 9.73122 10.394 9.99124 10.2L12.5919 8.25H20.5916V18.75Z" fill="black"/>
</svg>
