<svg width="25" height="24" viewBox="0 0 25 24" fill="none" xmlns="http://www.w3.org/2000/svg">
<path d="M16.0916 13.5C16.0916 14.2417 15.8716 14.9667 15.4596 15.5834C15.0475 16.2001 14.4618 16.6807 13.7766 16.9645C13.0914 17.2484 12.3374 17.3226 11.61 17.1779C10.8825 17.0333 10.2144 16.6761 9.6899 16.1517C9.16546 15.6272 8.8083 14.959 8.66361 14.2316C8.51891 13.5042 8.59318 12.7502 8.87701 12.0649C9.16083 11.3797 9.64148 10.794 10.2582 10.382C10.8749 9.96993 11.5999 9.75 12.3416 9.75C13.3361 9.75 14.2899 10.1451 14.9932 10.8483C15.6965 11.5516 16.0916 12.5054 16.0916 13.5ZM6.34155 5.25C5.74821 5.25 5.16819 5.42595 4.67484 5.75559C4.1815 6.08524 3.79698 6.55377 3.56992 7.10195C3.34285 7.65013 3.28344 8.25333 3.3992 8.83527C3.51495 9.41721 3.80068 9.95176 4.22023 10.3713C4.63979 10.7909 5.17434 11.0766 5.75628 11.1924C6.33823 11.3081 6.94143 11.2487 7.4896 11.0216C8.03778 10.7946 8.50632 10.4101 8.83596 9.91671C9.16561 9.42336 9.34155 8.84334 9.34155 8.25C9.34155 7.45435 9.02548 6.69129 8.46287 6.12868C7.90027 5.56607 7.1372 5.25 6.34155 5.25ZM18.3416 5.25C17.7482 5.25 17.1682 5.42595 16.6748 5.75559C16.1815 6.08524 15.797 6.55377 15.5699 7.10195C15.3429 7.65013 15.2834 8.25333 15.3992 8.83527C15.515 9.41721 15.8007 9.95176 16.2202 10.3713C16.6398 10.7909 17.1743 11.0766 17.7563 11.1924C18.3382 11.3081 18.9414 11.2487 19.4896 11.0216C20.0378 10.7946 20.5063 10.4101 20.836 9.91671C21.1656 9.42336 21.3416 8.84334 21.3416 8.25C21.3416 7.45435 21.0255 6.69129 20.4629 6.12868C19.9003 5.56607 19.1372 5.25 18.3416 5.25Z" fill="black" fill-opacity="0.04"/>
<path d="M23.2916 14.1C23.2128 14.1591 23.1231 14.2021 23.0277 14.2266C22.9323 14.251 22.833 14.2564 22.7355 14.2425C22.638 14.2286 22.5442 14.1956 22.4595 14.1454C22.3747 14.0952 22.3007 14.0288 22.2416 13.95C21.7895 13.3424 21.2011 12.8494 20.5238 12.5107C19.8464 12.172 19.0989 11.9971 18.3416 12C18.1427 12 17.9519 11.921 17.8113 11.7804C17.6706 11.6397 17.5916 11.449 17.5916 11.25C17.5916 11.0511 17.6706 10.8604 17.8113 10.7197C17.9519 10.5791 18.1427 10.5 18.3416 10.5C18.7624 10.5 19.1748 10.382 19.5319 10.1593C19.889 9.93665 20.1765 9.61831 20.3617 9.24046C20.5469 8.8626 20.6225 8.44037 20.5798 8.02173C20.5371 7.60308 20.3778 7.2048 20.1201 6.87213C19.8624 6.53946 19.5166 6.28572 19.1219 6.13975C18.7272 5.99378 18.2995 5.96142 17.8873 6.04634C17.4752 6.13127 17.0951 6.33008 16.7902 6.62019C16.4854 6.91031 16.268 7.28009 16.1628 7.68755C16.1382 7.78296 16.095 7.87259 16.0358 7.95132C15.9765 8.03004 15.9023 8.09633 15.8175 8.14639C15.7326 8.19644 15.6387 8.22929 15.5411 8.24305C15.4435 8.25682 15.3442 8.25123 15.2488 8.22661C15.1534 8.20199 15.0637 8.15881 14.985 8.09955C14.9063 8.04029 14.84 7.9661 14.7899 7.88122C14.7399 7.79634 14.707 7.70243 14.6933 7.60486C14.6795 7.50729 14.6851 7.40796 14.7097 7.31255C14.8557 6.74753 15.1316 6.22439 15.5154 5.78475C15.8992 5.34511 16.3803 5.00111 16.9204 4.78012C17.4605 4.55913 18.0448 4.46725 18.6266 4.51179C19.2085 4.55633 19.772 4.73606 20.2722 5.03668C20.7724 5.3373 21.1955 5.75051 21.5079 6.24344C21.8203 6.73636 22.0133 7.2954 22.0717 7.87606C22.13 8.45672 22.052 9.04297 21.8439 9.58819C21.6357 10.1334 21.3033 10.6225 20.8728 11.0166C21.8927 11.4582 22.7792 12.1589 23.4444 13.0491C23.5035 13.1281 23.5464 13.218 23.5707 13.3136C23.595 13.4092 23.6002 13.5087 23.586 13.6063C23.5718 13.7039 23.5385 13.7978 23.488 13.8825C23.4375 13.9672 23.3707 14.0412 23.2916 14.1ZM18.2403 19.875C18.2927 19.9604 18.3274 20.0554 18.3425 20.1544C18.3575 20.2535 18.3526 20.3545 18.328 20.4516C18.3033 20.5486 18.2595 20.6398 18.1991 20.7197C18.1387 20.7995 18.0629 20.8665 17.9761 20.9166C17.8894 20.9667 17.7935 20.9989 17.6941 21.0113C17.5948 21.0238 17.4939 21.0162 17.3975 20.989C17.3011 20.9618 17.2111 20.9156 17.1329 20.8531C17.0546 20.7906 16.9897 20.7131 16.9419 20.625C16.4694 19.8253 15.7965 19.1625 14.9897 18.7021C14.1829 18.2416 13.2701 17.9995 12.3411 17.9995C11.4122 17.9995 10.4993 18.2416 9.6925 18.7021C8.8857 19.1625 8.21286 19.8253 7.74034 20.625C7.69346 20.7147 7.62892 20.7939 7.55063 20.8579C7.47233 20.922 7.38189 20.9695 7.28475 20.9977C7.1876 21.0259 7.08576 21.0341 6.98534 21.0219C6.88493 21.0097 6.78802 20.9774 6.70045 20.9267C6.61287 20.8761 6.53644 20.8083 6.47576 20.7274C6.41507 20.6464 6.37138 20.5541 6.34731 20.4558C6.32325 20.3576 6.31931 20.2555 6.33572 20.1557C6.35214 20.0559 6.38858 19.9604 6.44284 19.875C7.16997 18.6257 8.27865 17.6426 9.60597 17.07C8.85909 16.4982 8.31018 15.7067 8.03641 14.8068C7.76263 13.9068 7.77775 12.9437 8.07964 12.0528C8.38153 11.1619 8.95501 10.388 9.71947 9.83993C10.4839 9.29182 11.4009 8.99704 12.3416 8.99704C13.2822 8.99704 14.1993 9.29182 14.9637 9.83993C15.7282 10.388 16.3017 11.1619 16.6035 12.0528C16.9054 12.9437 16.9206 13.9068 16.6468 14.8068C16.373 15.7067 15.8241 16.4982 15.0772 17.07C16.4045 17.6426 17.5132 18.6257 18.2403 19.875ZM12.3416 16.5C12.9349 16.5 13.515 16.3241 14.0083 15.9945C14.5016 15.6648 14.8862 15.1963 15.1132 14.6481C15.3403 14.0999 15.3997 13.4967 15.2839 12.9148C15.1682 12.3328 14.8825 11.7983 14.4629 11.3787C14.0434 10.9592 13.5088 10.6734 12.9269 10.5577C12.3449 10.4419 11.7417 10.5013 11.1935 10.7284C10.6454 10.9555 10.1768 11.34 9.84718 11.8333C9.51754 12.3267 9.34159 12.9067 9.34159 13.5C9.34159 14.2957 9.65766 15.0588 10.2203 15.6214C10.7829 16.184 11.5459 16.5 12.3416 16.5ZM7.09159 11.25C7.09159 11.0511 7.01257 10.8604 6.87192 10.7197C6.73127 10.5791 6.5405 10.5 6.34159 10.5C5.92077 10.5 5.5084 10.382 5.15131 10.1593C4.79422 9.93665 4.50673 9.61831 4.3215 9.24046C4.13626 8.8626 4.0607 8.44037 4.1034 8.02173C4.14611 7.60308 4.30536 7.2048 4.56307 6.87213C4.82078 6.53946 5.16662 6.28572 5.56131 6.13975C5.956 5.99378 6.38372 5.96142 6.79587 6.04634C7.20803 6.13127 7.58811 6.33008 7.89294 6.62019C8.19778 6.91031 8.41514 7.28009 8.52034 7.68755C8.57007 7.88024 8.69431 8.04529 8.86573 8.14639C9.03715 8.24748 9.24171 8.27634 9.43441 8.22661C9.6271 8.17688 9.79215 8.05264 9.89324 7.88122C9.99434 7.7098 10.0232 7.50524 9.97347 7.31255C9.82745 6.74753 9.55157 6.22439 9.16779 5.78475C8.78401 5.34511 8.30292 5.00111 7.7628 4.78012C7.22268 4.55913 6.63843 4.46725 6.05655 4.51179C5.47467 4.55633 4.91122 4.73606 4.41102 5.03668C3.91083 5.3373 3.4877 5.75051 3.1753 6.24344C2.8629 6.73636 2.66986 7.2954 2.61153 7.87606C2.55321 8.45672 2.6312 9.04297 2.83932 9.58819C3.04744 10.1334 3.37993 10.6225 3.81034 11.0166C2.79155 11.4586 1.90601 12.1593 1.24159 13.0491C1.12212 13.2082 1.07076 13.4083 1.0988 13.6053C1.12684 13.8023 1.23199 13.9801 1.39112 14.0996C1.55025 14.219 1.75033 14.2704 1.94733 14.2424C2.14433 14.2143 2.32212 14.1092 2.44159 13.95C2.89364 13.3424 3.48204 12.8494 4.15943 12.5107C4.83681 12.172 5.58426 11.9971 6.34159 12C6.5405 12 6.73127 11.921 6.87192 11.7804C7.01257 11.6397 7.09159 11.449 7.09159 11.25Z" fill="black"/>
</svg>
