<svg width="25" height="24" viewBox="0 0 25 24" fill="none" xmlns="http://www.w3.org/2000/svg">
<path d="M21.3416 5.25V7.5H3.34155V5.25C3.34155 5.05109 3.42057 4.86032 3.56122 4.71967C3.70188 4.57902 3.89264 4.5 4.09155 4.5H20.5916C20.7905 4.5 20.9812 4.57902 21.1219 4.71967C21.2625 4.86032 21.3416 5.05109 21.3416 5.25Z" fill="black" fill-opacity="0.04"/>
<path d="M20.5916 3.75H4.09155C3.69373 3.75 3.3122 3.90804 3.03089 4.18934C2.74959 4.47064 2.59155 4.85218 2.59155 5.25V18.75C2.59155 19.1478 2.74959 19.5294 3.03089 19.8107C3.3122 20.092 3.69373 20.25 4.09155 20.25H20.5916C20.9894 20.25 21.3709 20.092 21.6522 19.8107C21.9335 19.5294 22.0916 19.1478 22.0916 18.75V5.25C22.0916 4.85218 21.9335 4.47064 21.6522 4.18934C21.3709 3.90804 20.9894 3.75 20.5916 3.75ZM20.5916 5.25V6.75H4.09155V5.25H20.5916ZM20.5916 18.75H4.09155V8.25H20.5916V18.75ZM16.8416 10.5C16.8416 11.6935 16.3674 12.8381 15.5235 13.682C14.6796 14.5259 13.535 15 12.3416 15C11.1481 15 10.0035 14.5259 9.15957 13.682C8.31566 12.8381 7.84155 11.6935 7.84155 10.5C7.84155 10.3011 7.92057 10.1103 8.06122 9.96967C8.20188 9.82902 8.39264 9.75 8.59155 9.75C8.79046 9.75 8.98123 9.82902 9.12188 9.96967C9.26254 10.1103 9.34155 10.3011 9.34155 10.5C9.34155 11.2956 9.65762 12.0587 10.2202 12.6213C10.7828 13.1839 11.5459 13.5 12.3416 13.5C13.1372 13.5 13.9003 13.1839 14.4629 12.6213C15.0255 12.0587 15.3416 11.2956 15.3416 10.5C15.3416 10.3011 15.4206 10.1103 15.5612 9.96967C15.7019 9.82902 15.8926 9.75 16.0916 9.75C16.2905 9.75 16.4812 9.82902 16.6219 9.96967C16.7625 10.1103 16.8416 10.3011 16.8416 10.5Z" fill="black"/>
</svg>
