<svg width="25" height="24" viewBox="0 0 25 24" fill="none" xmlns="http://www.w3.org/2000/svg">
<path d="M7.84155 3.75V20.25H4.84155C4.64264 20.25 4.45188 20.171 4.31122 20.0303C4.17057 19.8897 4.09155 19.6989 4.09155 19.5V4.5C4.09155 4.30109 4.17057 4.11032 4.31122 3.96967C4.45188 3.82902 4.64264 3.75 4.84155 3.75H7.84155Z" fill="black" fill-opacity="0.04"/>
<path d="M17.5916 10.5C17.5916 10.6989 17.5125 10.8897 17.3719 11.0303C17.2312 11.171 17.0405 11.25 16.8416 11.25H10.8416C10.6426 11.25 10.4519 11.171 10.3112 11.0303C10.1706 10.8897 10.0916 10.6989 10.0916 10.5C10.0916 10.3011 10.1706 10.1103 10.3112 9.96967C10.4519 9.82902 10.6426 9.75 10.8416 9.75H16.8416C17.0405 9.75 17.2312 9.82902 17.3719 9.96967C17.5125 10.1103 17.5916 10.3011 17.5916 10.5ZM16.8416 12.75H10.8416C10.6426 12.75 10.4519 12.829 10.3112 12.9697C10.1706 13.1103 10.0916 13.3011 10.0916 13.5C10.0916 13.6989 10.1706 13.8897 10.3112 14.0303C10.4519 14.171 10.6426 14.25 10.8416 14.25H16.8416C17.0405 14.25 17.2312 14.171 17.3719 14.0303C17.5125 13.8897 17.5916 13.6989 17.5916 13.5C17.5916 13.3011 17.5125 13.1103 17.3719 12.9697C17.2312 12.829 17.0405 12.75 16.8416 12.75ZM21.3416 4.5V19.5C21.3416 19.8978 21.1835 20.2794 20.9022 20.5607C20.6209 20.842 20.2394 21 19.8416 21H4.84155C4.44373 21 4.0622 20.842 3.78089 20.5607C3.49959 20.2794 3.34155 19.8978 3.34155 19.5V4.5C3.34155 4.10218 3.49959 3.72064 3.78089 3.43934C4.0622 3.15804 4.44373 3 4.84155 3H19.8416C20.2394 3 20.6209 3.15804 20.9022 3.43934C21.1835 3.72064 21.3416 4.10218 21.3416 4.5ZM4.84155 19.5H7.09155V4.5H4.84155V19.5ZM19.8416 19.5V4.5H8.59155V19.5H19.8416Z" fill="black"/>
</svg>
