<svg width="25" height="24" viewBox="0 0 25 24" fill="none" xmlns="http://www.w3.org/2000/svg">
<path d="M19.0916 3H5.59155C5.39264 3 5.20188 3.07902 5.06122 3.21967C4.92057 3.36032 4.84155 3.55109 4.84155 3.75V20.25C4.84155 20.4489 4.92057 20.6397 5.06122 20.7803C5.20188 20.921 5.39264 21 5.59155 21H19.0916C19.2905 21 19.4812 20.921 19.6219 20.7803C19.7625 20.6397 19.8416 20.4489 19.8416 20.25V3.75C19.8416 3.55109 19.7625 3.36032 19.6219 3.21967C19.4812 3.07902 19.2905 3 19.0916 3ZM12.3416 15.75C11.7482 15.75 11.1682 15.5741 10.6748 15.2444C10.1815 14.9148 9.79698 14.4462 9.56991 13.8981C9.34285 13.3499 9.28344 12.7467 9.3992 12.1647C9.51495 11.5828 9.80067 11.0482 10.2202 10.6287C10.6398 10.2091 11.1743 9.9234 11.7563 9.80764C12.3382 9.69189 12.9414 9.7513 13.4896 9.97836C14.0378 10.2054 14.5063 10.5899 14.836 11.0833C15.1656 11.5766 15.3416 12.1567 15.3416 12.75C15.3416 13.5456 15.0255 14.3087 14.4629 14.8713C13.9003 15.4339 13.1372 15.75 12.3416 15.75Z" fill="black" fill-opacity="0.04"/>
<path d="M7.39062 18.6C7.46944 18.6592 7.55917 18.7024 7.65467 18.7269C7.75017 18.7514 7.84958 18.7569 7.94719 18.7429C8.0448 18.729 8.13871 18.696 8.22354 18.6457C8.30837 18.5954 8.38245 18.5289 8.44155 18.45C8.89564 17.8445 9.48447 17.3531 10.1614 17.0147C10.8383 16.6762 11.5847 16.5 12.3416 16.5C13.0984 16.5 13.8448 16.6762 14.5217 17.0147C15.1986 17.3531 15.7875 17.8445 16.2416 18.45C16.3006 18.5288 16.3747 18.5952 16.4594 18.6454C16.5442 18.6955 16.638 18.7285 16.7355 18.7425C16.833 18.7564 16.9323 18.751 17.0277 18.7265C17.1231 18.7021 17.2128 18.6591 17.2916 18.6C17.3703 18.5409 17.4367 18.4669 17.4869 18.3821C17.5371 18.2974 17.5701 18.2036 17.584 18.1061C17.5979 18.0086 17.5925 17.9093 17.5681 17.8139C17.5436 17.7185 17.5006 17.6288 17.4416 17.55C16.7774 16.6596 15.8918 15.9586 14.8728 15.5166C15.4313 15.0067 15.8225 14.3399 15.9952 13.6037C16.168 12.8675 16.1141 12.0962 15.8406 11.3912C15.5672 10.6862 15.087 10.0803 14.463 9.65304C13.8391 9.2258 13.1006 8.99718 12.3444 8.99718C11.5882 8.99718 10.8496 9.2258 10.2257 9.65304C9.60174 10.0803 9.12154 10.6862 8.8481 11.3912C8.57467 12.0962 8.52077 12.8675 8.69349 13.6037C8.86621 14.3399 9.25747 15.0067 9.81593 15.5166C8.79484 15.9577 7.90722 16.6588 7.24155 17.55C7.12211 17.709 7.07071 17.909 7.09866 18.1059C7.12661 18.3028 7.23163 18.4805 7.39062 18.6ZM12.3416 10.5C12.7866 10.5 13.2216 10.632 13.5916 10.8792C13.9616 11.1264 14.25 11.4778 14.4203 11.889C14.5906 12.3001 14.6351 12.7525 14.5483 13.189C14.4615 13.6254 14.2472 14.0263 13.9325 14.341C13.6179 14.6557 13.217 14.87 12.7805 14.9568C12.344 15.0436 11.8916 14.999 11.4805 14.8287C11.0694 14.6584 10.718 14.37 10.4707 14C10.2235 13.63 10.0916 13.195 10.0916 12.75C10.0916 12.1533 10.3286 11.581 10.7506 11.159C11.1725 10.7371 11.7448 10.5 12.3416 10.5ZM19.0916 2.25H5.59155C5.19373 2.25 4.8122 2.40804 4.53089 2.68934C4.24959 2.97064 4.09155 3.35218 4.09155 3.75V20.25C4.09155 20.6478 4.24959 21.0294 4.53089 21.3107C4.8122 21.592 5.19373 21.75 5.59155 21.75H19.0916C19.4894 21.75 19.8709 21.592 20.1522 21.3107C20.4335 21.0294 20.5916 20.6478 20.5916 20.25V3.75C20.5916 3.35218 20.4335 2.97064 20.1522 2.68934C19.8709 2.40804 19.4894 2.25 19.0916 2.25ZM19.0916 20.25H5.59155V3.75H19.0916V20.25ZM8.59155 6C8.59155 5.80109 8.67057 5.61032 8.81122 5.46967C8.95188 5.32902 9.14264 5.25 9.34155 5.25H15.3416C15.5405 5.25 15.7312 5.32902 15.8719 5.46967C16.0125 5.61032 16.0916 5.80109 16.0916 6C16.0916 6.19891 16.0125 6.38968 15.8719 6.53033C15.7312 6.67098 15.5405 6.75 15.3416 6.75H9.34155C9.14264 6.75 8.95188 6.67098 8.81122 6.53033C8.67057 6.38968 8.59155 6.19891 8.59155 6Z" fill="black"/>
</svg>
