<svg width="25" height="24" viewBox="0 0 25 24" fill="none" xmlns="http://www.w3.org/2000/svg">
<path d="M20.5916 4.5H4.09155C3.89264 4.5 3.70188 4.57902 3.56122 4.71967C3.42057 4.86032 3.34155 5.05109 3.34155 5.25V18.75C3.34155 18.9489 3.42057 19.1397 3.56122 19.2803C3.70188 19.421 3.89264 19.5 4.09155 19.5H20.5916C20.7905 19.5 20.9812 19.421 21.1219 19.2803C21.2625 19.1397 21.3416 18.9489 21.3416 18.75V5.25C21.3416 5.05109 21.2625 4.86032 21.1219 4.71967C20.9812 4.57902 20.7905 4.5 20.5916 4.5ZM9.34155 13.5C8.89654 13.5 8.46153 13.368 8.09152 13.1208C7.72151 12.8736 7.43312 12.5222 7.26282 12.111C7.09253 11.6999 7.04797 11.2475 7.13479 10.811C7.2216 10.3746 7.43589 9.97368 7.75056 9.65901C8.06523 9.34434 8.46614 9.13005 8.9026 9.04323C9.33906 8.95642 9.79146 9.00097 10.2026 9.17127C10.6137 9.34157 10.9651 9.62996 11.2124 9.99997C11.4596 10.37 11.5916 10.805 11.5916 11.25C11.5916 11.8467 11.3545 12.419 10.9325 12.841C10.5106 13.2629 9.93829 13.5 9.34155 13.5Z" fill="black" fill-opacity="0.04"/>
<path d="M19.0916 10.5C19.0916 10.6989 19.0125 10.8897 18.8719 11.0303C18.7312 11.171 18.5405 11.25 18.3416 11.25H14.5916C14.3926 11.25 14.2019 11.171 14.0612 11.0303C13.9206 10.8897 13.8416 10.6989 13.8416 10.5C13.8416 10.3011 13.9206 10.1103 14.0612 9.96967C14.2019 9.82902 14.3926 9.75 14.5916 9.75H18.3416C18.5405 9.75 18.7312 9.82902 18.8719 9.96967C19.0125 10.1103 19.0916 10.3011 19.0916 10.5ZM18.3416 12.75H14.5916C14.3926 12.75 14.2019 12.829 14.0612 12.9697C13.9206 13.1103 13.8416 13.3011 13.8416 13.5C13.8416 13.6989 13.9206 13.8897 14.0612 14.0303C14.2019 14.171 14.3926 14.25 14.5916 14.25H18.3416C18.5405 14.25 18.7312 14.171 18.8719 14.0303C19.0125 13.8897 19.0916 13.6989 19.0916 13.5C19.0916 13.3011 19.0125 13.1103 18.8719 12.9697C18.7312 12.829 18.5405 12.75 18.3416 12.75ZM22.0916 5.25V18.75C22.0916 19.1478 21.9335 19.5294 21.6522 19.8107C21.3709 20.092 20.9894 20.25 20.5916 20.25H4.09155C3.69373 20.25 3.3122 20.092 3.03089 19.8107C2.74959 19.5294 2.59155 19.1478 2.59155 18.75V5.25C2.59155 4.85218 2.74959 4.47064 3.03089 4.18934C3.3122 3.90804 3.69373 3.75 4.09155 3.75H20.5916C20.9894 3.75 21.3709 3.90804 21.6522 4.18934C21.9335 4.47064 22.0916 4.85218 22.0916 5.25ZM20.5916 18.75V5.25H4.09155V18.75H20.5916ZM13.0672 15.5625C13.1169 15.7552 13.088 15.9598 12.987 16.1312C12.8859 16.3026 12.7208 16.4268 12.5281 16.4766C12.3354 16.5263 12.1309 16.4974 11.9594 16.3963C11.788 16.2952 11.6638 16.1302 11.6141 15.9375C11.3675 14.9756 10.3897 14.25 9.34062 14.25C8.29155 14.25 7.31468 14.9756 7.06718 15.9375C7.01745 16.1302 6.89321 16.2952 6.72179 16.3963C6.55037 16.4974 6.34581 16.5263 6.15312 16.4766C5.96042 16.4268 5.79537 16.3026 5.69428 16.1312C5.59318 15.9598 5.56432 15.7552 5.61405 15.5625C5.85743 14.6566 6.43273 13.8755 7.22562 13.3744C6.80427 12.9555 6.51678 12.421 6.39957 11.8386C6.28237 11.2562 6.34073 10.652 6.56727 10.1028C6.79381 9.55361 7.17832 9.08402 7.67205 8.75358C8.16578 8.42315 8.74651 8.24675 9.34062 8.24675C9.93472 8.24675 10.5154 8.42315 11.0092 8.75358C11.5029 9.08402 11.8874 9.55361 12.114 10.1028C12.3405 10.652 12.3989 11.2562 12.2817 11.8386C12.1645 12.421 11.877 12.9555 11.4556 13.3744C12.2494 13.8748 12.8252 14.6562 13.0681 15.5625H13.0672ZM9.34155 12.75C9.63822 12.75 9.92823 12.662 10.1749 12.4972C10.4216 12.3324 10.6138 12.0981 10.7274 11.824C10.8409 11.5499 10.8706 11.2483 10.8127 10.9574C10.7549 10.6664 10.612 10.3991 10.4022 10.1893C10.1924 9.97956 9.92516 9.8367 9.63419 9.77882C9.34322 9.72094 9.04162 9.75065 8.76753 9.86418C8.49344 9.97771 8.25917 10.17 8.09435 10.4166C7.92953 10.6633 7.84155 10.9533 7.84155 11.25C7.84155 11.6478 7.99959 12.0294 8.28089 12.3107C8.5622 12.592 8.94373 12.75 9.34155 12.75Z" fill="black"/>
</svg>
