<svg width="25" height="24" viewBox="0 0 25 24" fill="none" xmlns="http://www.w3.org/2000/svg">
<path d="M9.71657 10.9153C9.83061 10.8495 9.9253 10.7548 9.99113 10.6407C10.057 10.5267 10.0916 10.3973 10.0916 10.2656V3.51563C10.0909 3.39605 10.0616 3.27837 10.0063 3.1724C9.95087 3.06643 9.87094 2.97523 9.77314 2.90643C9.67535 2.83762 9.56252 2.7932 9.44406 2.77686C9.32561 2.76052 9.20496 2.77274 9.09219 2.8125C6.90311 3.58726 5.06218 5.11748 3.90033 7.12807C2.73849 9.13865 2.33194 11.4977 2.75376 13.7813C2.77562 13.8993 2.82552 14.0104 2.89926 14.1052C2.973 14.2 3.06842 14.2757 3.17751 14.3259C3.27581 14.3719 3.38305 14.3956 3.49157 14.3953C3.62321 14.3954 3.75254 14.3608 3.86657 14.295L9.71657 10.9153ZM8.59157 4.65188V9.8325L4.10282 12.4228C4.09157 12.2812 4.09157 12.1388 4.09157 12C4.0929 10.4797 4.51372 8.98928 5.30769 7.69279C6.10166 6.3963 7.23799 5.34404 8.59157 4.65188ZM22.0916 12C22.0923 14.1404 21.3887 16.2216 20.0893 17.9225C18.7898 19.6234 16.9668 20.8493 14.9015 21.4113C12.8361 21.9733 10.6432 21.84 8.66116 21.0321C6.67908 20.2241 5.01795 18.7863 3.93407 16.9406C3.88354 16.8554 3.85041 16.761 3.83659 16.6628C3.82277 16.5647 3.82854 16.4648 3.85356 16.3689C3.87858 16.273 3.92235 16.183 3.98235 16.1041C4.04236 16.0253 4.11739 15.9591 4.20313 15.9094L11.5916 11.6091V3C11.5916 2.80109 11.6706 2.61032 11.8112 2.46967C11.9519 2.32902 12.1427 2.25 12.3416 2.25C14.043 2.25087 15.7146 2.69675 17.1905 3.54338C18.6663 4.39001 19.8951 5.60794 20.7547 7.07625C20.765 7.09125 20.7744 7.10625 20.7838 7.12219C20.7931 7.13813 20.8025 7.15688 20.8109 7.17375C21.6522 8.64297 22.0937 10.307 22.0916 12Z" fill="black"/>
</svg>
